# xmcd
# Copyright (C) 1995-1998 Ti Kan
#
# Track frame offsets:
#       150
#       12545
#       31035
#       43217
#       59201
#       77513
#       93021
#       109166
#       129106
#       153942
#       167103
#       205883
#       221950
#       243293
#       269808
#       285354
#
# Disc length: 4041 seconds
#
# Revision: 0
# Processed by: cddbd v1.5.2PL0 Copyright (c) Steve Scherf et al.
# Submitted via: CD-Transfer v1.0
#
DISCID=df0fc710
DTITLE=Various Artist - 
DYEAR=09
DGENRE=
TTITLE0=Well Alright Spoon
TTITLE1=Lenin Arcade Fire
TTITLE2=Mimizan Beirut
TTITLE3=El Caporal My Morning Jacket
TTITLE4=Inspiration Information Jones, Sharon and The Dap Kings
TTITLE5=With A Girl Like You Sitek, Dave
TTITLE6=Blood Pt. 2 (Remix) Buck 65 Ft. Sufjean Stevens and Serengeti
TTITLE7=Hey, Snow White New Pornographers, The
TTITLE8=Gentle Hour Yo La Tengo
TTITLE9=Amazing Grace Cat Power
TTITLE10=Happiness Riceboy Sleeps
TTITLE11=Another Saturday Murdoch, Stuart
TTITLE12=Giant Of Illinois Bird, Andrew
TTITLE13=Lua Oberst, Connor Ft. Gillian Welch
TTITLE14=When The Road Runs Out Blonde Redhead and Devastations
TTITLE15=Love Vs. Porno Drew, Kevin
EXTD=
EXTT0=
EXTT1=
EXTT2=
EXTT3=
EXTT4=
EXTT5=
EXTT6=
EXTT7=
EXTT8=
EXTT9=
EXTT10=
EXTT11=
EXTT12=
EXTT13=
EXTT14=
EXTT15=
PLAYORDER=
